{
    "asset" : {
        "generator" : "Khronos glTF Blender I/O v1.7.33",
        "version" : "2.0"
    },
    "scene" : 0,
    "scenes" : [
        {
            "name" : "Scene",
            "nodes" : [
                0,
                1
            ]
        }
    ],
    "nodes" : [
        {
            "mesh" : 0,
            "name" : "main",
            "rotation" : [
                0.7071068286895752,
                0,
                0,
                0.7071068286895752
            ],
            "scale" : [
                0.012588403187692165,
                0.012588403187692165,
                0.012588403187692165
            ],
            "translation" : [
                -0.002965591847896576,
                0.007875442504882812,
                0.020735502243041992
            ]
        },
        {
            "mesh" : 1,
            "name" : "details",
            "rotation" : [
                0.7071068286895752,
                0,
                0,
                0.7071068286895752
            ],
            "scale" : [
                0.012588403187692165,
                0.012588403187692165,
                0.012588403187692165
            ],
            "translation" : [
                -0.0037417374551296234,
                0.00846719741821289,
                0.006521701812744141
            ]
        }
    ],
    "materials" : [
        {
            "doubleSided" : true,
            "name" : "main",
            "pbrMetallicRoughness" : {
                "metallicFactor" : 0
            }
        },
        {
            "doubleSided" : true,
            "name" : "details",
            "pbrMetallicRoughness" : {
                "baseColorTexture" : {
                    "index" : 0
                },
                "metallicFactor" : 0,
                "metallicRoughnessTexture" : {
                    "index" : 1
                }
            }
        }
    ],
    "meshes" : [
        {
            "name" : "Plane",
            "primitives" : [
                {
                    "attributes" : {
                        "POSITION" : 0,
                        "NORMAL" : 1,
                        "TEXCOORD_0" : 2
                    },
                    "indices" : 3,
                    "material" : 0
                }
            ]
        },
        {
            "name" : "Plane.016",
            "primitives" : [
                {
                    "attributes" : {
                        "POSITION" : 4,
                        "NORMAL" : 5,
                        "TEXCOORD_0" : 6
                    },
                    "indices" : 7,
                    "material" : 1
                }
            ]
        }
    ],
    "textures" : [
        {
            "sampler" : 0,
            "source" : 0
        },
        {
            "sampler" : 0,
            "source" : 1
        }
    ],
    "images" : [
        {
            "mimeType" : "image/png",
            "name" : "details_Base_color",
            "uri" : "khokhloma_hat_scale/details_Base_color.png"
        },
        {
            "mimeType" : "image/png",
            "name" : "details_Roughness",
            "uri" : "khokhloma_hat_scale/details_Roughness.png"
        }
    ],
    "accessors" : [
        {
            "bufferView" : 0,
            "componentType" : 5126,
            "count" : 492,
            "max" : [
                8.110292434692383,
                3.5435216426849365,
                10.264383316040039
            ],
            "min" : [
                -8.110292434692383,
                -4.441733360290527,
                -3.3230748176574707
            ],
            "type" : "VEC3"
        },
        {
            "bufferView" : 1,
            "componentType" : 5126,
            "count" : 492,
            "type" : "VEC3"
        },
        {
            "bufferView" : 2,
            "componentType" : 5126,
            "count" : 492,
            "type" : "VEC2"
        },
        {
            "bufferView" : 3,
            "componentType" : 5123,
            "count" : 1992,
            "type" : "SCALAR"
        },
        {
            "bufferView" : 4,
            "componentType" : 5126,
            "count" : 2665,
            "max" : [
                8.259033203125,
                4.584084510803223,
                10.395277976989746
            ],
            "min" : [
                -8.147397994995117,
                -3.3891685009002686,
                -3.737517833709717
            ],
            "type" : "VEC3"
        },
        {
            "bufferView" : 5,
            "componentType" : 5126,
            "count" : 2665,
            "type" : "VEC3"
        },
        {
            "bufferView" : 6,
            "componentType" : 5126,
            "count" : 2665,
            "type" : "VEC2"
        },
        {
            "bufferView" : 7,
            "componentType" : 5123,
            "count" : 10860,
            "type" : "SCALAR"
        }
    ],
    "bufferViews" : [
        {
            "buffer" : 0,
            "byteLength" : 5904,
            "byteOffset" : 0
        },
        {
            "buffer" : 0,
            "byteLength" : 5904,
            "byteOffset" : 5904
        },
        {
            "buffer" : 0,
            "byteLength" : 3936,
            "byteOffset" : 11808
        },
        {
            "buffer" : 0,
            "byteLength" : 3984,
            "byteOffset" : 15744
        },
        {
            "buffer" : 0,
            "byteLength" : 31980,
            "byteOffset" : 19728
        },
        {
            "buffer" : 0,
            "byteLength" : 31980,
            "byteOffset" : 51708
        },
        {
            "buffer" : 0,
            "byteLength" : 21320,
            "byteOffset" : 83688
        },
        {
            "buffer" : 0,
            "byteLength" : 21720,
            "byteOffset" : 105008
        }
    ],
    "samplers" : [
        {
            "magFilter" : 9729,
            "minFilter" : 9987
        }
    ],
    "buffers" : [
        {
            "byteLength" : 126728,
            "uri" : "khokhloma_hat_scale.bin"
        }
    ]
}
